<svg width="24.000000" height="24.000000" viewBox="0 0 24 24" fill="none" xmlns="http://www.w3.org/2000/svg" xmlns:xlink="http://www.w3.org/1999/xlink">
	<desc>
			Created with Pixso.
	</desc>
	<defs>
		<clipPath id="clip12_5">
			<rect width="24.000000" height="24.000000" fill="white" fill-opacity="0"/>
		</clipPath>
	</defs>
	<g clip-path="url(#clip12_5)">
		<path d="M2.68054 8.24686C4.44531 5.9542 7.48584 3.25 12 3.25C16.5142 3.25 19.5547 5.9542 21.3195 8.24686L21.3513 8.28818C21.7504 8.80652 22.1179 9.28391 22.3673 9.8484C22.6343 10.4529 22.75 11.1117 22.75 12C22.75 12.8883 22.6343 13.5471 22.3673 14.1516C22.1179 14.7161 21.7504 15.1935 21.3513 15.7118L21.3195 15.7531C19.5547 18.0458 16.5142 20.75 12 20.75C7.48584 20.75 4.44531 18.0458 2.68054 15.7531L2.64874 15.7118C2.24963 15.1935 1.88208 14.7161 1.63269 14.1516C1.36566 13.5471 1.25 12.8883 1.25 12C1.25 11.1117 1.36566 10.4529 1.63269 9.8484C1.88208 9.28392 2.24963 8.80653 2.64874 8.2882L2.68054 8.24686ZM12 4.75C8.15033 4.75 5.49866 7.04492 3.8692 9.1618C3.43066 9.73159 3.17371 10.0721 3.00476 10.4545C2.84686 10.812 2.75 11.2489 2.75 12C2.75 12.7511 2.84686 13.188 3.00476 13.5455C3.17371 13.9279 3.43066 14.2684 3.8692 14.8382C5.49866 16.9551 8.15033 19.25 12 19.25C15.8497 19.25 18.5013 16.9551 20.1308 14.8382C20.5693 14.2684 20.8263 13.9279 20.9952 13.5455C21.1531 13.188 21.25 12.7511 21.25 12C21.25 11.2489 21.1531 10.812 20.9952 10.4545C20.8263 10.0721 20.5693 9.73159 20.1308 9.1618C18.5013 7.04492 15.8497 4.75 12 4.75ZM8.25 12C8.25 9.92893 9.92896 8.25 12 8.25C14.071 8.25 15.75 9.92893 15.75 12C15.75 14.0711 14.071 15.75 12 15.75C9.92896 15.75 8.25 14.0711 8.25 12ZM12 9.75C10.7574 9.75 9.75 10.7574 9.75 12C9.75 13.2426 10.7574 14.25 12 14.25C13.2426 14.25 14.25 13.2426 14.25 12C14.25 10.7574 13.2426 9.75 12 9.75Z" fill="#AFB2BF" fill-opacity="1.000000" fill-rule="evenodd"/>
	</g>
</svg>
